# xmcd
#
# Track frame offsets:
#	150
#	26670
#	52757
#	74145
#	95335
#	117690
#	144300
#	163992
#	188662
#	209375
#	231320
#	253150
#	281555
#
# Disc length: 4503
#
# Revision: 3
# Processed by: cddbd v1.5.1PL0 Copyright (c) Steve Scherf et al.
# Submitted via: FreeRIP 2.70 
# Normalized: r2:TDELIM( - )
#
DISCID=c711950d
DTITLE=Supernatural
DYEAR=1999
DGENRE=Pop
TTITLE0=Santana - Da LeYaleo
TTITLE1=Santana ft.Dave Matthews - Love Of My Life
TTITLE2=Santana ft.Everlast - Put Your Lights On
TTITLE3=Santana - Africa Bamba
TTITLE4=Santana ft.Rob Thomas - Smooth
TTITLE5=Santana ft.Lauryn Hill,Cee-Lo - Do You Like The Way
TTITLE6=Santana ft.The Product G&B - Maria Maria
TTITLE7=Santana - Migra
TTITLE8=Santana ft.Mana,Fher - Corazon Espinado
TTITLE9=Santana ft.Eagle Eye Cherry - Wishing It Was
TTITLE10=Santana - El Farol
TTITLE11=Santana ft.KC Porter - Primavera
TTITLE12=Santana ft.Eric Clapton - The Calling
EXTD=
EXTT0=
EXTT1=
EXTT2=
EXTT3=
EXTT4=
EXTT5=
EXTT6=
EXTT7=
EXTT8=
EXTT9=
EXTT10=
EXTT11=
EXTT12=
PLAYORDER=
